# xmcd CD database file
#
# Track frame offsets:
#	150
#	13000
#	26541
#	46093
#	62003
#	76197
#	100138
#	114725
#	130097
#	145348
#	156697
#	173139
#	187767
#	207227
#	225242
#	240079
#	251920
#	267944
#	282217
#	294289
#	308233
#
# Disc length: 4346 seconds
#
# Revision: 0
# Processed by: cddbd v1.5.2PL0 Copyright (c) Steve Scherf et al.
# Submitted via: CDex 1.70beta2
#
DISCID=1810f815
DTITLE=Various Artist - Country Series 01
DYEAR=1900
DGENRE=Country
TTITLE0=LeAnne Rimes - Blue
TTITLE1=Mark Chestnutt - It's Sure is Monday
TTITLE2=Garth Brooks - Shameless
TTITLE3=Rhett Akins - Wha They're Talking About
TTITLE4=Marty Stuart  - Tempted
TTITLE5=David Allen Coe - You Never Call Me by My Name
TTITLE6=Wade Hayes - Old Enough to Know Better
TTITLE7=Gene Watson - Love in the Hot Afternoon
TTITLE8=Tim McGraw - I Like it, I love It
TTITLE9=Alan Jackson - Tall, Tall Trees
TTITLE10=Mark Willis - Places I've Never Been
TTITLE11=George Strait - You Look so Good
TTITLE12=Tracy Byrd - Watermelon Crawk
TTITLE13=Hank Williams, Jr - All My Rowdy Friends
TTITLE14=Wynonna - Girls with Guitars
TTITLE15=Freddy Fender - Before the Next Tear Drop Falls
TTITLE16=Lee Roy Parnell - Givin' Water to a Drowning Man
TTITLE17=George Strait - Ocean Property
TTITLE18=Skeeter Davis - End of the World
TTITLE19=Marty Stuart and Travis Tritt - Honky Tonkin's What I do Best
TTITLE20=Alabama Mountain Music
EXTD=
EXTT0=
EXTT1=
EXTT2=
EXTT3=
EXTT4=
EXTT5=
EXTT6=
EXTT7=
EXTT8=
EXTT9=
EXTT10=
EXTT11=
EXTT12=
EXTT13=
EXTT14=
EXTT15=
EXTT16=
EXTT17=
EXTT18=
EXTT19=
EXTT20=
PLAYORDER=
